<?xml version="1.0" encoding="utf-8"?>
<!-- Generator: Adobe Illustrator 21.0.2, SVG Export Plug-In . SVG Version: 6.00 Build 0)  -->
<svg version="1.1" xmlns="http://www.w3.org/2000/svg" xmlns:xlink="http://www.w3.org/1999/xlink" x="0px" y="0px"
	 viewBox="0 0 200 200" style="enable-background:new 0 0 200 200;" xml:space="preserve">
<style type="text/css">
	.st0{fill:#0B0807;}
</style>
<g id="Camada_1">
</g>
<g id="Camada_2">
	<g>
		<path class="st0" d="M1.2,93.8c0.5-1,0.3-2.1,0.4-3.1C4,67.7,13.2,47.8,29.2,31.2c14.2-14.7,31.5-24,51.6-28.1
			c8-1.6,16.1-2.2,24.2-1.8c21.5,1.1,40.7,8.3,57.4,21.9c17.9,14.5,29.4,33.1,34.5,55.5c2.2,9.6,2.8,19.3,2,29.2
			c-1.6,21.1-9.2,39.8-22.8,56c-13.9,16.6-31.5,27.5-52.6,32.8c-9.6,2.4-19.3,3.2-29.1,2.6c-21.8-1.3-41.2-9-57.9-23
			c-16-13.4-26.7-30.3-32.1-50.5c-1.6-6.1-2.7-12.2-3-18.5c0-0.2,0.1-0.5-0.2-0.6C1.2,102.3,1.2,98.1,1.2,93.8z M100.2,195.2
			c52,0.3,93.8-41.8,95-92.6c1.2-53.7-41.7-96.5-93.3-97.3C48.3,4.4,6,47.3,5.2,98.6C4.4,152.8,48.4,195.6,100.2,195.2z"/>
		<path class="st0" d="M191.8,100.2c0.1,50.4-41.1,92.3-93,91.6c-49.1-0.7-90.3-40.6-90-92.1C9,49.4,49.5,8.5,100.8,8.7
			C151.3,9,191.7,49.8,191.8,100.2z M188.8,89.4c-0.4,5.8-0.5,11.6-1.4,17.4c-0.9,5.8-2.3,11.5-4.4,17c-2,5.5-4.4,10.8-7.3,15.9
			c-2.9,5.1-6.2,9.8-10,14.3c-3.8,4.5-8,8.6-12.6,12.3c-4.6,3.7-9.6,6.9-14.8,9.7c-5.2,2.8-10.5,5.1-16.2,6.9
			c-5.6,1.8-11.3,2.9-17.2,3.6c-5.9,0.7-11.8,0.7-17.7,0.4c-5.8-0.3-11.4-1.4-17-2.7c29.7,9.9,57.5,6,83.2-12.1
			C180.3,150.9,192,123.3,188.8,89.4z"/>
	</g>
</g>
</svg>
