<?xml version="1.0" encoding="utf-8"?>
<!-- Generator: Adobe Illustrator 21.0.2, SVG Export Plug-In . SVG Version: 6.00 Build 0)  -->
<svg version="1.1" id="Camada_1" xmlns="http://www.w3.org/2000/svg" xmlns:xlink="http://www.w3.org/1999/xlink" x="0px" y="0px"
	 viewBox="0 0 150 150" style="enable-background:new 0 0 150 150;" xml:space="preserve">
<style type="text/css">
	.st0{fill:#030303;}
</style>
<g>
	<path class="st0" d="M100-0.7c1.4,2.8,3.1,5.4,4.7,8.1c13.2,22.1,26.4,44.2,39.6,66.3c0.5,0.8,0.4,1.3,0,2
		c-14.2,24.5-28.3,48.9-42.4,73.4c-0.2,0.4-0.6,0.7-0.5,1.2c1,0,2-0.1,2.9,0c0.9,0.1,1.3-0.3,1.7-1c13.7-23.6,27.4-47.2,41.2-70.8
		c0.9-1.5,1.7-3.2,2.8-4.6c0-0.2,0-0.3,0-0.5c-0.9-0.9-1.4-2-2-3.1c-14-23.4-28-46.8-41.9-70.2c-0.4-0.7-0.8-1-1.7-1
		C102.9-0.7,101.5-0.7,100-0.7z"/>
	<path d="M10.7,150.3c0.4,0,0.9,0,1.3,0c27.7,0,55.4,0,83,0c0.9,0,1.4-0.2,1.9-1.1c14-24.6,28-49.2,42-73.8c0.4-0.7,0.4-1.2-0.1-1.9
		c-15.1-24.2-30.1-48.4-45.2-72.6c-0.4-0.7-0.9-0.7-1.6-0.7c-26.9,0-53.9,0-80.8,0c-0.4,0-0.9,0-1.3,0c-3.2,0-6.3,0-9.5,0
		c-0.2,0.5,0.2,0.7,0.3,1C15.4,25.6,29.9,50,44.5,74.3c0.6,1,0.6,1.7,0,2.7c-14.7,24.1-29.3,48.2-44,72.3c-0.2,0.3-0.3,0.5-0.6,1
		C3.7,150.3,7.2,150.3,10.7,150.3z"/>
</g>
</svg>
