<?xml version="1.0" standalone="no"?>
<!DOCTYPE svg PUBLIC "-//W3C//DTD SVG 20010904//EN"
 "http://www.w3.org/TR/2001/REC-SVG-20010904/DTD/svg10.dtd">
<svg version="1.0" xmlns="http://www.w3.org/2000/svg"
 width="460.000000pt" height="460.000000pt" viewBox="0 0 460.000000 460.000000"
 preserveAspectRatio="xMidYMid meet">

<g transform="translate(0.000000,460.000000) scale(0.100000,-0.100000)"
fill="#000000" stroke="none">
<path d="M1436 4384 c-189 -37 -369 -133 -483 -258 -61 -66 -792 -1312 -834
-1421 -48 -122 -62 -220 -56 -379 5 -153 22 -226 76 -342 48 -102 701 -1254
742 -1309 43 -57 236 -240 319 -302 75 -56 192 -115 292 -147 174 -54 204 -56
937 -56 636 0 681 1 757 20 112 26 245 86 351 155 107 71 290 251 354 350 26
39 184 314 353 612 348 615 336 584 336 814 0 212 -53 448 -155 690 -19 45
-166 304 -327 576 -230 388 -307 510 -356 564 -35 38 -66 68 -70 67 -4 -2 -38
30 -76 69 -126 132 -284 223 -465 269 -136 35 -361 44 -1051 43 -443 -1 -591
-4 -644 -15z m2354 -566 c87 -147 82 -138 77 -138 -2 0 -37 55 -77 123 -87
146 -82 137 -77 137 2 0 37 -55 77 -122z m180 -303 c94 -158 97 -164 83 -150
-9 8 -166 270 -181 300 -3 7 -2 7 5 0 6 -5 47 -73 93 -150z m170 -287 c87
-147 82 -138 77 -138 -2 0 -37 55 -77 123 -87 146 -82 137 -77 137 2 0 37 -55
77 -122z m125 -213 c110 -195 199 -499 220 -745 8 -97 -11 -250 -39 -320 -36
-89 -623 -1118 -683 -1198 -201 -266 -488 -444 -775 -482 -59 -8 -279 -10
-709 -7 -523 4 -637 7 -706 20 -81 17 -248 66 -241 72 1 1 45 -8 96 -21 152
-38 262 -44 882 -44 625 0 681 3 823 51 88 29 205 89 294 151 90 62 239 207
303 296 25 35 186 311 359 615 340 597 344 606 357 775 16 217 -69 587 -192
835 -18 37 -32 67 -29 67 2 0 20 -29 40 -65z"/>
</g>
</svg>
