<?xml version="1.0" encoding="utf-8"?>
<!-- Generator: Adobe Illustrator 21.0.2, SVG Export Plug-In . SVG Version: 6.00 Build 0)  -->
<svg version="1.1" id="Camada_1" xmlns="http://www.w3.org/2000/svg" xmlns:xlink="http://www.w3.org/1999/xlink" x="0px" y="0px"
	 viewBox="0 0 230 230" style="enable-background:new 0 0 230 230;" xml:space="preserve">
<g>
	<path d="M116.6,215c-8.5,0-17,0-25.4,0c-6.4,0-12.8-0.1-19.2-0.2c-8-0.1-14.1-3.6-18.1-10.4c-4.9-8.4-9.7-16.8-14.6-25.2
		c-10.4-18-20.8-35.9-31.1-53.9c-4-6.9-4.1-14-0.2-21c14.7-26,29.4-51.9,44.2-77.9c4-7.1,10.2-10.7,18.4-10.7c7.5,0,15,0,22.4,0.1
		c10.6,0.1,21.2,0.2,31.8,0.2c10.6,0.1,21.3,0.1,31.9,0.3c3.3,0,6.6-0.1,9.7,1c5.1,1.7,9.1,4.9,11.8,9.6c9,15.7,18.1,31.4,27.2,47.1
		c6.2,10.7,12.4,21.4,18.5,32.1c3.9,6.9,3.9,13.9,0.1,20.8c-14.7,25.9-29.4,51.8-44.1,77.7c-4.1,7.3-10.4,10.9-18.8,10.9
		c-12.7-0.1-25.4-0.2-38.1-0.2c-2.2,0-4.3,0-6.5,0C116.6,215.2,116.6,215.1,116.6,215z M155.4,208.8c2.6,0.1,5.2-0.1,7.7-0.8
		c4.3-1.2,8-3.4,10.9-6.8c1.7-2,2.9-4.4,4.2-6.7c3.5-6.2,7-12.5,10.5-18.7c2.7-4.9,5.4-9.8,8.2-14.6c3.5-6.3,7.1-12.6,10.6-18.9
		c2.8-4.9,5.5-9.8,8.3-14.7c3.9-7,4.3-14.1,0.7-21.3c-2.2-4.4-4.8-8.5-7.3-12.8c-3.7-6.4-7.4-12.7-11.1-19.1
		c-4.1-7.1-8.1-14.2-12.2-21.3c-3.7-6.5-7.6-13-11.3-19.5c-2.9-5.1-6.9-8.7-12.5-10.6c-3.4-1.2-6.9-1-10.4-1.1
		c-6.2-0.3-12.4,0-18.6-0.2c-7.5-0.2-15.1,0-22.7-0.3c-5.3-0.2-10.5,0-15.8-0.2c-7.2-0.2-14.4-0.1-21.7-0.1c-3.8,0-7.4,1.3-10.5,3.4
		c-3.3,2.2-5.7,5.2-7.6,8.7c-3.8,7-7.8,13.9-11.7,20.8c-2.8,4.9-5.5,9.9-8.3,14.8c-3.5,6.2-7,12.5-10.5,18.7
		c-2.7,4.9-5.4,9.8-8.2,14.6c-4.1,7.2-4.1,14.4-0.3,21.7c1.8,3.3,3.8,6.6,5.7,9.8c6.2,10.7,12.3,21.5,18.5,32.2
		c5.9,10.2,11.8,20.4,17.7,30.6c4.3,7.4,10.8,10.9,19.2,11.1c5.9,0.2,11.8-0.1,17.7,0.2c6.3,0.3,12.6,0,18.9,0.2
		c6.6,0.3,13.2,0,19.8,0.2C140.8,208.8,148.1,208.4,155.4,208.8z"/>
	<path d="M152.3,201.6c-8.7-0.2-17.3-0.1-26-0.3c-6.4-0.1-12.7,0-19.1-0.2c-6.5-0.2-13,0-19.5-0.3c-4-0.1-8,0.1-12-0.2
		c-5.1-0.3-9.1-2.9-11.7-7.3c-8.1-13.9-16.1-27.8-24.1-41.7c-6-10.4-12-20.7-17.9-31.2c-2.5-4.5-2.5-9.2,0-13.7
		c7.2-13,14.6-26,21.9-39c6-10.6,11.9-21.3,17.9-31.9c2.8-5,7.2-7.5,12.9-7.4c8.8,0,17.7,0,26.5,0.3c6.2,0.2,12.4,0,18.6,0.2
		c6.7,0.2,13.4,0,20,0.3c5.2,0.2,10.3,0.1,15.5,0.2c5.8,0.1,10.2,2.7,13.1,7.7c8.9,15.5,17.9,31,26.8,46.5c4.8,8.3,9.6,16.7,14.4,25
		c3.1,5.3,3.1,10.5,0,15.9c-8,14.1-15.8,28.2-23.8,42.3c-5.2,9.2-10.3,18.5-15.6,27.7c-2.7,4.7-6.8,7.1-12.2,7.2
		C156.1,201.7,154.2,201.6,152.3,201.6z"/>
</g>
</svg>
