<?xml version="1.0" encoding="utf-8"?>
<!-- Generator: Adobe Illustrator 21.0.2, SVG Export Plug-In . SVG Version: 6.00 Build 0)  -->
<svg version="1.1" id="Camada_1" xmlns="http://www.w3.org/2000/svg" xmlns:xlink="http://www.w3.org/1999/xlink" x="0px" y="0px"
	 viewBox="0 0 150 150" style="enable-background:new 0 0 150 150;" xml:space="preserve">
<style type="text/css">
	.st0{fill:#030303;}
</style>
<g>
	<path class="st0" d="M51.3-0.7c-1.3,2.8-3.1,5.4-4.6,8.1c-13,22.1-26,44.2-39.1,66.3c-0.4,0.8-0.4,1.3,0,2
		c14,24.5,27.9,48.9,41.9,73.4c0.2,0.4,0.6,0.7,0.5,1.2c-1,0-1.9-0.1-2.9,0c-0.9,0.1-1.3-0.3-1.7-1c-13.5-23.6-27.1-47.2-40.6-70.8
		c-0.9-1.5-1.6-3.2-2.8-4.6c0-0.2,0-0.3,0-0.5c0.9-0.9,1.3-2,2-3.1C17.8,47,31.6,23.6,45.3,0.2c0.4-0.7,0.8-1,1.7-1
		C48.4-0.7,49.9-0.7,51.3-0.7z"/>
	<path d="M139.4,150.3c-0.4,0-0.9,0-1.3,0c-27.3,0-54.6,0-81.9,0c-0.9,0-1.4-0.2-1.8-1.1C40.5,124.6,26.7,100,12.9,75.4
		c-0.4-0.7-0.4-1.2,0.1-1.9C27.8,49.3,42.7,25.2,57.5,0.9c0.4-0.7,0.9-0.7,1.6-0.7c26.6,0,53.2,0,79.8,0c0.4,0,0.9,0,1.3,0
		c3.1,0,6.3,0,9.4,0c0.2,0.5-0.2,0.7-0.3,1c-14.4,24.4-28.7,48.8-43.1,73.1c-0.6,1-0.6,1.7,0,2.7c14.5,24.1,28.9,48.2,43.4,72.3
		c0.2,0.3,0.3,0.5,0.6,1C146.3,150.3,142.9,150.3,139.4,150.3z"/>
</g>
</svg>
